# xmcd
#
# Track frame offsets:
#	150
#	18670
#	34010
#	50577
#	61395
#	76142
#	88885
#	104885
#	116642
#	131192
#	145660
#	162520
#	182157
#	195205
#	213377
#	230380
#	248350
#
# Disc length: 3511 seconds
#
# Revision: 0
# Processed by: cddbd v1.5.2PL0 Copyright (c) Steve Scherf et al.
# Submitted via: audiograbber 1.83.01
#
DISCID=ed0db511
DTITLE=MS® - Juventud En Concierto 5.1
DYEAR=1987
DGENRE=Pop
TTITLE0=Pandora - Como Te Va Mi Amor?
TTITLE1=Tatiana - Querido Amigo
TTITLE2=Mijares - A Corazon Abierto
TTITLE3=Luis Miguel - Un Rock and Roll Sono
TTITLE4=Fandango - Irresistible Seduccion
TTITLE5=Tatiana - Donde Vas Amor?
TTITLE6=Alaska - La Desicion
TTITLE7=Luis Miguel - Isabel
TTITLE8=Tatiana - Feliz
TTITLE9=Pandora - De Mil Maneras
TTITLE10=Alaska - Isis
TTITLE11=Luis Miguel - Popurri Rock N' Roll
TTITLE12=Fandango - La Vuelta A Mi Corazon En 80 Segundos
TTITLE13=Tatiana - Momentos
TTITLE14=Pandora - Solo El Y Yo
TTITLE15=Tatiana - Creo Que Es Amor
TTITLE16=Mijares - Solamente Un Hombre
EXTD=MS®
EXTT0=
EXTT1=
EXTT2=
EXTT3=
EXTT4=
EXTT5=
EXTT6=
EXTT7=
EXTT8=
EXTT9=
EXTT10=
EXTT11=
EXTT12=
EXTT13=
EXTT14=
EXTT15=
EXTT16=
PLAYORDER=
